<?xml version="1.0" encoding="UTF-8"?>
<!DOCTYPE svg PUBLIC "-//W3C//DTD SVG 1.1//EN" "http://www.w3.org/Graphics/SVG/1.1/DTD/svg11.dtd">
<!-- Creator: CorelDRAW X7 -->
<svg xmlns="http://www.w3.org/2000/svg" xml:space="preserve" width="250px" height="250px" version="1.1" style="shape-rendering:geometricPrecision; text-rendering:geometricPrecision; image-rendering:optimizeQuality; fill-rule:evenodd; clip-rule:evenodd"
viewBox="0 0 250 250"
 xmlns:xlink="http://www.w3.org/1999/xlink">
 <g id="Layer_x0020_1">
  <metadata id="CorelCorpID_0Corel-Layer"/>
  <path fill="#FFFFFF" class="fil0" d="M193 209l0 26 -143 0c0,-7 1,-13 4,-19 3,-10 9,-19 17,-29 8,-9 20,-20 35,-32 23,-19 39,-34 47,-46 9,-11 13,-21 13,-31 0,-11 -4,-20 -12,-27 -7,-7 -17,-11 -29,-11 -13,0 -23,4 -31,12 -7,7 -11,18 -11,31l-27 -2c1,-21 8,-36 21,-47 12,-10 28,-16 49,-16 20,0 37,6 49,17 12,12 18,26 18,43 0,9 -2,17 -6,26 -3,8 -9,17 -17,26 -8,9 -22,22 -41,38 -16,13 -26,22 -30,27 -5,5 -9,9 -12,14l106 0z"/>
 </g>
</svg>
