<?xml version="1.0" encoding="UTF-8"?>
<!DOCTYPE svg PUBLIC "-//W3C//DTD SVG 1.1//EN" "http://www.w3.org/Graphics/SVG/1.1/DTD/svg11.dtd">
<!-- Creator: CorelDRAW X7 -->
<svg xmlns="http://www.w3.org/2000/svg" xml:space="preserve" width="250px" height="250px" version="1.1" style="shape-rendering:geometricPrecision; text-rendering:geometricPrecision; image-rendering:optimizeQuality; fill-rule:evenodd; clip-rule:evenodd"
viewBox="0 0 250 250"
 xmlns:xlink="http://www.w3.org/1999/xlink">
 <g id="Layer_x0020_1">
  <metadata id="CorelCorpID_0Corel-Layer"/>
  <path fill="#FFFFFF" class="fil0" d="M54 176l27 -3c3,15 8,26 15,32 8,7 16,10 27,10 13,0 23,-4 32,-13 8,-8 12,-19 12,-32 0,-12 -3,-22 -11,-30 -8,-8 -18,-12 -31,-12 -5,0 -11,1 -18,3l3 -23c1,0 3,0 4,0 11,0 21,-3 30,-8 9,-6 14,-15 14,-28 0,-9 -3,-17 -10,-24 -7,-6 -15,-9 -25,-9 -11,0 -19,3 -26,10 -7,6 -11,16 -13,29l-27 -5c3,-18 11,-31 22,-41 12,-10 26,-15 43,-15 12,0 22,3 32,8 10,5 18,12 23,20 5,9 8,18 8,28 0,9 -3,18 -8,25 -5,8 -12,14 -22,19 13,2 23,9 30,18 7,9 10,21 10,35 0,18 -6,34 -20,47 -14,14 -31,20 -52,20 -19,0 -35,-6 -47,-17 -13,-11 -20,-26 -22,-44z"/>
 </g>
</svg>
