<?xml version="1.0" encoding="UTF-8"?>
<!DOCTYPE svg PUBLIC "-//W3C//DTD SVG 1.1//EN" "http://www.w3.org/Graphics/SVG/1.1/DTD/svg11.dtd">
<!-- Creator: CorelDRAW X7 -->
<svg xmlns="http://www.w3.org/2000/svg" xml:space="preserve" width="250px" height="250px" version="1.1" style="shape-rendering:geometricPrecision; text-rendering:geometricPrecision; image-rendering:optimizeQuality; fill-rule:evenodd; clip-rule:evenodd"
viewBox="0 0 250 250"
 xmlns:xlink="http://www.w3.org/1999/xlink">
 <g id="Layer_x0020_1">
  <metadata id="CorelCorpID_0Corel-Layer"/>
  <path fill="#FFFFFF" class="fil0" d="M52 177l28 -2c2,13 7,23 14,30 8,7 17,10 28,10 12,0 23,-4 32,-14 9,-10 13,-22 13,-38 0,-15 -4,-27 -12,-36 -9,-9 -20,-13 -34,-13 -8,0 -16,2 -23,6 -7,4 -12,9 -16,15l-25 -3 21 -111 107 0 0 25 -86 0 -11 58c13,-9 26,-13 40,-13 19,0 35,6 48,19 13,13 19,30 19,50 0,20 -6,37 -17,51 -14,17 -33,26 -56,26 -20,0 -36,-5 -48,-16 -13,-11 -20,-26 -22,-44z"/>
 </g>
</svg>
