<?xml version="1.0" encoding="UTF-8"?>
<!DOCTYPE svg PUBLIC "-//W3C//DTD SVG 1.1//EN" "http://www.w3.org/Graphics/SVG/1.1/DTD/svg11.dtd">
<!-- Creator: CorelDRAW X7 -->
<svg xmlns="http://www.w3.org/2000/svg" xml:space="preserve" width="250px" height="250px" version="1.1" style="shape-rendering:geometricPrecision; text-rendering:geometricPrecision; image-rendering:optimizeQuality; fill-rule:evenodd; clip-rule:evenodd"
viewBox="0 0 250 250"
 xmlns:xlink="http://www.w3.org/1999/xlink">
 <g id="Layer_x0020_1">
  <metadata id="CorelCorpID_0Corel-Layer"/>
  <path fill="#FFFFFF" class="fil0" d="M191 71l-26 2c-3,-10 -6,-18 -10,-23 -8,-7 -16,-11 -27,-11 -8,0 -16,2 -22,7 -9,6 -15,15 -20,27 -5,11 -7,28 -8,49 7,-9 15,-17 24,-21 9,-5 19,-7 29,-7 17,0 32,6 45,19 12,13 19,30 19,50 0,14 -3,27 -9,38 -6,12 -14,21 -24,27 -10,6 -22,9 -35,9 -22,0 -40,-8 -54,-24 -14,-16 -21,-43 -21,-80 0,-42 8,-72 23,-91 14,-16 32,-25 55,-25 17,0 31,5 41,15 11,9 18,22 20,39zm-108 93c0,9 2,18 5,26 4,8 10,15 17,19 7,4 14,6 22,6 11,0 20,-4 28,-13 8,-9 12,-21 12,-37 0,-15 -4,-26 -11,-35 -8,-9 -18,-13 -30,-13 -12,0 -23,4 -31,13 -8,9 -12,20 -12,34z"/>
 </g>
</svg>
