<?xml version="1.0" encoding="UTF-8"?>
<!DOCTYPE svg PUBLIC "-//W3C//DTD SVG 1.1//EN" "http://www.w3.org/Graphics/SVG/1.1/DTD/svg11.dtd">
<!-- Creator: CorelDRAW X7 -->
<svg xmlns="http://www.w3.org/2000/svg" xml:space="preserve" width="250px" height="250px" version="1.1" style="shape-rendering:geometricPrecision; text-rendering:geometricPrecision; image-rendering:optimizeQuality; fill-rule:evenodd; clip-rule:evenodd"
viewBox="0 0 250 250"
 xmlns:xlink="http://www.w3.org/1999/xlink">
 <g id="Layer_x0020_1">
  <metadata id="CorelCorpID_0Corel-Layer"/>
  <path fill="#FFFFFF" class="fil0" d="M97 118c-11,-4 -19,-10 -24,-17 -5,-8 -8,-17 -8,-27 0,-16 6,-29 17,-40 11,-10 26,-16 45,-16 18,0 34,6 45,17 11,11 17,24 17,40 0,10 -2,18 -8,26 -5,7 -13,13 -23,17 13,4 23,11 30,21 6,9 10,21 10,34 0,18 -7,34 -20,46 -13,13 -30,19 -51,19 -21,0 -38,-6 -51,-19 -13,-12 -20,-28 -20,-47 0,-14 4,-26 11,-35 7,-9 17,-16 30,-19zm-5 -45c0,10 3,18 10,25 6,6 15,10 25,10 11,0 19,-4 25,-10 7,-6 10,-14 10,-24 0,-9 -3,-18 -10,-24 -6,-7 -15,-10 -25,-10 -10,0 -18,3 -25,10 -7,6 -10,14 -10,23zm-9 99c0,8 2,15 6,22 3,7 8,13 16,17 7,3 14,5 22,5 13,0 23,-4 32,-12 8,-8 12,-18 12,-31 0,-12 -4,-23 -13,-31 -8,-9 -19,-13 -32,-13 -12,0 -22,4 -31,13 -8,8 -12,18 -12,30z"/>
 </g>
</svg>
