<?xml version="1.0" encoding="UTF-8"?>
<!DOCTYPE svg PUBLIC "-//W3C//DTD SVG 1.1//EN" "http://www.w3.org/Graphics/SVG/1.1/DTD/svg11.dtd">
<!-- Creator: CorelDRAW X7 -->
<svg xmlns="http://www.w3.org/2000/svg" xml:space="preserve" width="250px" height="250px" version="1.1" style="shape-rendering:geometricPrecision; text-rendering:geometricPrecision; image-rendering:optimizeQuality; fill-rule:evenodd; clip-rule:evenodd"
viewBox="0 0 250 250"
 xmlns:xlink="http://www.w3.org/1999/xlink">
 <g id="Layer_x0020_1">
  <metadata id="CorelCorpID_0Corel-Layer"/>
  <path fill="#FFFFFF" class="fil0" d="M60 185l26 -3c2,12 6,21 12,26 6,6 14,8 23,8 9,0 16,-1 22,-5 6,-4 11,-9 15,-15 4,-6 7,-15 10,-25 2,-11 4,-22 4,-33 0,-1 0,-3 -1,-5 -5,8 -12,15 -21,21 -9,5 -19,7 -30,7 -18,0 -33,-6 -45,-19 -12,-13 -18,-30 -18,-51 0,-22 6,-39 19,-53 13,-13 29,-20 48,-20 14,0 27,4 38,12 12,7 21,18 27,32 6,14 9,34 9,60 0,28 -3,50 -9,66 -6,16 -15,29 -27,37 -11,9 -25,13 -41,13 -17,0 -31,-5 -41,-14 -11,-9 -17,-23 -20,-39zm108 -95c0,-16 -4,-28 -12,-36 -8,-9 -17,-14 -29,-14 -12,0 -22,5 -30,15 -9,9 -13,22 -13,37 0,13 4,25 12,33 8,9 18,13 31,13 12,0 22,-4 30,-13 8,-8 11,-20 11,-35z"/>
 </g>
</svg>
