<?xml version="1.0" encoding="UTF-8"?>
<!DOCTYPE svg PUBLIC "-//W3C//DTD SVG 1.1//EN" "http://www.w3.org/Graphics/SVG/1.1/DTD/svg11.dtd">
<!-- Creator: CorelDRAW X7 -->
<svg xmlns="http://www.w3.org/2000/svg" xml:space="preserve" width="250px" height="250px" version="1.1" style="shape-rendering:geometricPrecision; text-rendering:geometricPrecision; image-rendering:optimizeQuality; fill-rule:evenodd; clip-rule:evenodd"
viewBox="0 0 250 250"
 xmlns:xlink="http://www.w3.org/1999/xlink">
 <g id="Layer_x0020_1">
  <metadata id="CorelCorpID_0Corel-Layer"/>
  <path fill="#FFFFFF" class="fil0" d="M50 229l0 -215 81 0c16,0 29,2 39,6 10,5 18,11 23,20 6,9 9,19 9,29 0,9 -3,18 -8,26 -5,8 -12,14 -22,19 13,4 23,11 30,20 7,9 10,20 10,33 0,10 -2,19 -6,28 -4,8 -9,15 -16,20 -6,4 -14,8 -23,10 -10,3 -21,4 -35,4l-82 0zm28 -125l47 0c13,0 22,-1 27,-2 7,-2 13,-6 16,-11 4,-5 6,-11 6,-19 0,-7 -2,-13 -5,-19 -4,-5 -9,-9 -15,-11 -6,-2 -17,-3 -33,-3l-43 0 0 65zm0 100l54 0c9,0 16,-1 19,-1 7,-1 12,-3 17,-6 4,-3 8,-7 11,-12 3,-5 4,-12 4,-18 0,-8 -2,-15 -6,-21 -4,-6 -10,-11 -17,-13 -8,-2 -18,-4 -32,-4l-50 0 0 75z"/>
 </g>
</svg>
