<?xml version="1.0" encoding="UTF-8"?>
<!DOCTYPE svg PUBLIC "-//W3C//DTD SVG 1.1//EN" "http://www.w3.org/Graphics/SVG/1.1/DTD/svg11.dtd">
<!-- Creator: CorelDRAW X7 -->
<svg xmlns="http://www.w3.org/2000/svg" xml:space="preserve" width="250px" height="250px" version="1.1" style="shape-rendering:geometricPrecision; text-rendering:geometricPrecision; image-rendering:optimizeQuality; fill-rule:evenodd; clip-rule:evenodd"
viewBox="0 0 250 250"
 xmlns:xlink="http://www.w3.org/1999/xlink">
 <g id="Layer_x0020_1">
  <metadata id="CorelCorpID_0Corel-Layer"/>
  <path fill="#FFFFFF" class="fil0" d="M191 153l28 8c-6,23 -17,41 -32,53 -15,12 -34,19 -57,19 -23,0 -42,-5 -56,-15 -15,-9 -26,-23 -33,-41 -8,-18 -12,-37 -12,-57 0,-23 4,-42 13,-59 9,-17 21,-29 37,-38 15,-9 33,-13 52,-13 21,0 39,6 54,17 15,10 25,26 31,46l-28 6c-5,-15 -13,-27 -22,-34 -10,-7 -21,-11 -36,-11 -16,0 -30,4 -41,12 -11,8 -19,19 -24,32 -4,14 -6,27 -6,42 0,18 2,34 8,47 5,14 13,24 24,31 12,7 24,10 37,10 16,0 29,-4 40,-14 11,-9 19,-22 23,-41z"/>
 </g>
</svg>
