<?xml version="1.0" encoding="UTF-8"?>
<!DOCTYPE svg PUBLIC "-//W3C//DTD SVG 1.1//EN" "http://www.w3.org/Graphics/SVG/1.1/DTD/svg11.dtd">
<!-- Creator: CorelDRAW X7 -->
<svg xmlns="http://www.w3.org/2000/svg" xml:space="preserve" width="250px" height="250px" version="1.1" style="shape-rendering:geometricPrecision; text-rendering:geometricPrecision; image-rendering:optimizeQuality; fill-rule:evenodd; clip-rule:evenodd"
viewBox="0 0 250 250"
 xmlns:xlink="http://www.w3.org/1999/xlink">
 <g id="Layer_x0020_1">
  <metadata id="CorelCorpID_0Corel-Layer"/>
  <path fill="#FFFFFF" class="fil0" d="M37 229l0 -215 74 0c17,0 30,1 39,3 12,3 23,8 31,15 12,10 20,22 26,37 5,15 8,32 8,51 0,17 -2,31 -5,44 -4,12 -9,23 -15,31 -6,8 -13,15 -20,19 -7,5 -15,9 -25,11 -11,3 -22,4 -35,4l-78 0zm29 -25l46 0c14,0 25,-2 33,-4 8,-3 15,-7 19,-11 7,-7 12,-16 16,-28 4,-11 6,-25 6,-41 0,-23 -4,-40 -11,-52 -8,-12 -17,-21 -27,-25 -8,-3 -20,-4 -37,-4l-45 0 0 165z"/>
 </g>
</svg>
