<?xml version="1.0" encoding="UTF-8"?>
<!DOCTYPE svg PUBLIC "-//W3C//DTD SVG 1.1//EN" "http://www.w3.org/Graphics/SVG/1.1/DTD/svg11.dtd">
<!-- Creator: CorelDRAW X7 -->
<svg xmlns="http://www.w3.org/2000/svg" xml:space="preserve" width="250px" height="250px" version="1.1" style="shape-rendering:geometricPrecision; text-rendering:geometricPrecision; image-rendering:optimizeQuality; fill-rule:evenodd; clip-rule:evenodd"
viewBox="0 0 250 250"
 xmlns:xlink="http://www.w3.org/1999/xlink">
 <g id="Layer_x0020_1">
  <metadata id="CorelCorpID_0Corel-Layer"/>
  <path fill="#FFFFFF" class="fil0" d="M127 147l0 -25 91 0 0 79c-14,12 -28,20 -43,26 -15,5 -30,8 -46,8 -21,0 -40,-4 -58,-14 -17,-9 -30,-22 -39,-39 -9,-17 -13,-36 -13,-57 0,-21 4,-41 13,-59 9,-18 21,-31 38,-40 16,-9 35,-14 57,-14 15,0 29,3 42,8 13,5 22,12 30,21 7,9 12,21 16,35l-26 7c-3,-11 -7,-19 -12,-25 -5,-7 -12,-12 -20,-15 -9,-4 -19,-6 -30,-6 -13,0 -24,2 -34,6 -9,4 -17,9 -23,16 -6,6 -10,13 -13,21 -6,13 -9,28 -9,43 0,19 4,36 10,49 7,12 17,22 29,28 13,7 26,10 40,10 13,0 25,-3 36,-7 12,-5 21,-10 27,-16l0 -40 -63 0z"/>
 </g>
</svg>
