<?xml version="1.0" encoding="UTF-8"?>
<!DOCTYPE svg PUBLIC "-//W3C//DTD SVG 1.1//EN" "http://www.w3.org/Graphics/SVG/1.1/DTD/svg11.dtd">
<!-- Creator: CorelDRAW X7 -->
<svg xmlns="http://www.w3.org/2000/svg" xml:space="preserve" width="250px" height="250px" version="1.1" style="shape-rendering:geometricPrecision; text-rendering:geometricPrecision; image-rendering:optimizeQuality; fill-rule:evenodd; clip-rule:evenodd"
viewBox="0 0 250 250"
 xmlns:xlink="http://www.w3.org/1999/xlink">
 <g id="Layer_x0020_1">
  <metadata id="CorelCorpID_0Corel-Layer"/>
  <path fill="#FFFFFF" class="fil0" d="M65 170l26 -3c1,16 4,28 9,34 6,6 13,9 23,9 7,0 13,-2 18,-5 6,-3 9,-8 11,-14 2,-5 3,-14 3,-27l0 -148 29 0 0 147c0,18 -3,32 -7,42 -4,10 -11,17 -21,22 -9,5 -20,8 -33,8 -19,0 -33,-5 -43,-16 -10,-11 -15,-27 -15,-49z"/>
 </g>
</svg>
