<?xml version="1.0" encoding="UTF-8"?>
<!DOCTYPE svg PUBLIC "-//W3C//DTD SVG 1.1//EN" "http://www.w3.org/Graphics/SVG/1.1/DTD/svg11.dtd">
<!-- Creator: CorelDRAW X7 -->
<svg xmlns="http://www.w3.org/2000/svg" xml:space="preserve" width="250px" height="250px" version="1.1" style="shape-rendering:geometricPrecision; text-rendering:geometricPrecision; image-rendering:optimizeQuality; fill-rule:evenodd; clip-rule:evenodd"
viewBox="0 0 250 250"
 xmlns:xlink="http://www.w3.org/1999/xlink">
 <g id="Layer_x0020_1">
  <metadata id="CorelCorpID_0Corel-Layer"/>
  <path fill="#FFFFFF" class="fil0" d="M23 127c0,-36 9,-64 29,-84 19,-20 44,-31 74,-31 20,0 38,5 54,15 16,9 28,22 36,39 9,17 13,37 13,58 0,22 -5,41 -14,59 -8,17 -21,30 -37,39 -16,9 -34,13 -52,13 -21,0 -39,-5 -55,-15 -16,-9 -28,-23 -36,-40 -8,-17 -12,-35 -12,-53zm29 0c0,26 7,46 21,61 14,15 32,23 53,23 21,0 39,-8 53,-23 13,-15 20,-36 20,-64 0,-17 -3,-33 -9,-46 -6,-13 -14,-23 -26,-30 -11,-7 -24,-11 -38,-11 -20,0 -37,7 -52,21 -15,14 -22,37 -22,69z"/>
 </g>
</svg>
