<?xml version="1.0" encoding="UTF-8"?>
<!DOCTYPE svg PUBLIC "-//W3C//DTD SVG 1.1//EN" "http://www.w3.org/Graphics/SVG/1.1/DTD/svg11.dtd">
<!-- Creator: CorelDRAW X7 -->
<svg xmlns="http://www.w3.org/2000/svg" xml:space="preserve" width="250px" height="250px" version="1.1" style="shape-rendering:geometricPrecision; text-rendering:geometricPrecision; image-rendering:optimizeQuality; fill-rule:evenodd; clip-rule:evenodd"
viewBox="0 0 250 250"
 xmlns:xlink="http://www.w3.org/1999/xlink">
 <g id="Layer_x0020_1">
  <metadata id="CorelCorpID_0Corel-Layer"/>
  <path fill="#FFFFFF" class="fil0" d="M49 231l0 -215 81 0c14,0 25,1 33,2 11,2 19,5 27,10 7,5 13,12 17,21 4,9 6,19 6,29 0,18 -5,34 -17,47 -12,12 -33,19 -63,19l-56 0 0 87 -28 0zm28 -113l56 0c19,0 32,-3 39,-10 8,-7 12,-16 12,-29 0,-9 -2,-17 -7,-23 -4,-6 -10,-11 -18,-13 -5,-1 -14,-2 -26,-2l-56 0 0 77z"/>
 </g>
</svg>
