<?xml version="1.0" encoding="UTF-8"?>
<!DOCTYPE svg PUBLIC "-//W3C//DTD SVG 1.1//EN" "http://www.w3.org/Graphics/SVG/1.1/DTD/svg11.dtd">
<!-- Creator: CorelDRAW X7 -->
<svg xmlns="http://www.w3.org/2000/svg" xml:space="preserve" width="250px" height="250px" version="1.1" style="shape-rendering:geometricPrecision; text-rendering:geometricPrecision; image-rendering:optimizeQuality; fill-rule:evenodd; clip-rule:evenodd"
viewBox="0 0 250 250"
 xmlns:xlink="http://www.w3.org/1999/xlink">
 <g id="Layer_x0020_1">
  <metadata id="CorelCorpID_0Corel-Layer"/>
  <path fill="#FFFFFF" class="fil0" d="M193 208c14,9 26,16 37,20l-8 20c-16,-5 -31,-14 -47,-26 -16,9 -33,13 -53,13 -19,0 -37,-5 -52,-14 -16,-9 -28,-23 -37,-40 -9,-17 -13,-36 -13,-57 0,-21 4,-41 13,-58 9,-18 21,-31 37,-40 16,-9 33,-14 53,-14 20,0 38,5 54,15 16,9 28,22 36,39 9,17 13,36 13,58 0,17 -3,33 -8,47 -6,15 -14,27 -25,37zm-62 -36c16,5 30,11 40,20 17,-15 25,-38 25,-68 0,-18 -3,-33 -9,-46 -5,-13 -14,-23 -25,-30 -12,-7 -25,-11 -39,-11 -21,0 -39,7 -52,22 -14,14 -21,36 -21,65 0,28 6,49 20,64 14,15 32,23 53,23 10,0 20,-2 29,-6 -9,-6 -18,-10 -28,-12l7 -21z"/>
 </g>
</svg>
