<?xml version="1.0" encoding="UTF-8"?>
<!DOCTYPE svg PUBLIC "-//W3C//DTD SVG 1.1//EN" "http://www.w3.org/Graphics/SVG/1.1/DTD/svg11.dtd">
<!-- Creator: CorelDRAW X7 -->
<svg xmlns="http://www.w3.org/2000/svg" xml:space="preserve" width="250px" height="250px" version="1.1" style="shape-rendering:geometricPrecision; text-rendering:geometricPrecision; image-rendering:optimizeQuality; fill-rule:evenodd; clip-rule:evenodd"
viewBox="0 0 250 250"
 xmlns:xlink="http://www.w3.org/1999/xlink">
 <g id="Layer_x0020_1">
  <metadata id="CorelCorpID_0Corel-Layer"/>
  <path fill="#FFFFFF" class="fil0" d="M31 231l0 -215 95 0c20,0 34,2 44,6 10,4 18,11 24,20 6,10 9,21 9,33 0,15 -5,28 -15,38 -10,11 -25,18 -46,20 8,4 14,8 18,11 8,8 16,17 23,29l37 58 -35 0 -29 -44c-8,-13 -15,-23 -20,-30 -6,-7 -10,-12 -15,-15 -4,-2 -8,-4 -13,-5 -3,-1 -8,-1 -16,-1l-32 0 0 95 -29 0zm29 -120l61 0c13,0 23,-1 30,-4 7,-3 13,-7 17,-13 4,-6 5,-12 5,-19 0,-10 -3,-19 -11,-25 -7,-7 -19,-10 -34,-10l-68 0 0 71z"/>
 </g>
</svg>
