<?xml version="1.0" encoding="UTF-8"?>
<!DOCTYPE svg PUBLIC "-//W3C//DTD SVG 1.1//EN" "http://www.w3.org/Graphics/SVG/1.1/DTD/svg11.dtd">
<!-- Creator: CorelDRAW X7 -->
<svg xmlns="http://www.w3.org/2000/svg" xml:space="preserve" width="250px" height="250px" version="1.1" style="shape-rendering:geometricPrecision; text-rendering:geometricPrecision; image-rendering:optimizeQuality; fill-rule:evenodd; clip-rule:evenodd"
viewBox="0 0 250 250"
 xmlns:xlink="http://www.w3.org/1999/xlink">
 <g id="Layer_x0020_1">
  <metadata id="CorelCorpID_0Corel-Layer"/>
  <path fill="#FFFFFF" class="fil0" d="M40 162l27 -2c1,11 4,20 9,26 4,7 12,13 21,17 10,5 21,7 33,7 11,0 21,-2 29,-5 8,-3 15,-8 19,-14 4,-5 6,-11 6,-18 0,-7 -2,-13 -6,-18 -4,-5 -11,-9 -20,-12 -5,-2 -18,-6 -38,-11 -20,-4 -33,-9 -41,-13 -11,-6 -18,-12 -23,-20 -5,-8 -8,-17 -8,-27 0,-11 3,-21 9,-31 7,-9 16,-16 27,-21 12,-5 25,-8 40,-8 16,0 30,3 42,8 12,5 22,13 28,23 7,10 10,21 11,34l-28 2c-1,-14 -6,-24 -14,-31 -9,-7 -21,-10 -38,-10 -17,0 -30,3 -38,9 -8,7 -12,14 -12,23 0,8 3,14 9,19 5,5 20,10 43,15 23,6 39,10 47,14 13,6 22,13 28,22 6,9 9,19 9,31 0,11 -3,22 -10,32 -6,10 -16,18 -28,24 -12,5 -26,8 -41,8 -20,0 -36,-3 -49,-9 -13,-5 -24,-14 -31,-25 -8,-12 -12,-24 -12,-39z"/>
 </g>
</svg>
