<?xml version="1.0" encoding="UTF-8"?>
<!DOCTYPE svg PUBLIC "-//W3C//DTD SVG 1.1//EN" "http://www.w3.org/Graphics/SVG/1.1/DTD/svg11.dtd">
<!-- Creator: CorelDRAW X7 -->
<svg xmlns="http://www.w3.org/2000/svg" xml:space="preserve" width="250px" height="250px" version="1.1" style="shape-rendering:geometricPrecision; text-rendering:geometricPrecision; image-rendering:optimizeQuality; fill-rule:evenodd; clip-rule:evenodd"
viewBox="0 0 250 250"
 xmlns:xlink="http://www.w3.org/1999/xlink">
 <g id="Layer_x0020_1">
  <metadata id="CorelCorpID_0Corel-Layer"/>
  <path fill="#FFFFFF" class="fil0" d="M180 16l29 0 0 124c0,22 -3,39 -7,52 -5,13 -14,23 -27,31 -13,8 -29,12 -50,12 -20,0 -37,-3 -50,-10 -12,-7 -21,-17 -27,-31 -5,-13 -8,-31 -8,-54l0 -124 28 0 0 124c0,19 2,33 6,42 3,9 9,15 17,20 9,5 19,7 31,7 21,0 36,-4 45,-14 9,-9 13,-28 13,-55l0 -124z"/>
 </g>
</svg>
