<?xml version="1.0" encoding="UTF-8"?>
<!DOCTYPE svg PUBLIC "-//W3C//DTD SVG 1.1//EN" "http://www.w3.org/Graphics/SVG/1.1/DTD/svg11.dtd">
<!-- Creator: CorelDRAW X7 -->
<svg xmlns="http://www.w3.org/2000/svg" xml:space="preserve" width="250px" height="250px" version="1.1" style="shape-rendering:geometricPrecision; text-rendering:geometricPrecision; image-rendering:optimizeQuality; fill-rule:evenodd; clip-rule:evenodd"
viewBox="0 0 250 250"
 xmlns:xlink="http://www.w3.org/1999/xlink">
 <g id="Layer_x0020_1">
  <metadata id="CorelCorpID_0Corel-Layer"/>
  <path fill="#FFFFFF" class="fil0" d="M58 231l-49 -215 25 0 28 141c3,15 6,30 8,44 5,-23 8,-36 9,-39l35 -146 29 0 27 109c6,27 11,53 14,76 3,-13 6,-29 10,-46l29 -139 24 0 -50 215 -24 0 -39 -164c-3,-13 -5,-22 -6,-25 -2,10 -4,18 -6,25l-39 164 -25 0z"/>
 </g>
</svg>
